<svg xmlns="http://www.w3.org/2000/svg" viewBox="0 0 422.59 374.77"><path fill="#21152F" d="M621.86,482.58,519.4,305.11a4,4,0,0,0-6.93,0l-36.39,63a32,32,0,0,0,0,32l89.6,155.19a32,32,0,0,0,27.71,16h179.2a32,32,0,0,0,27.72-16l36.37-63a4,4,0,0,0-3.47-6l-204.41.27A8,8,0,0,1,621.86,482.58Z" transform="translate(-471.8 -196.56)"/><path fill="#21152F" d="M676.13,390.46l-86.56.1a4,4,0,0,0-3.46,6l43.23,74.88a8,8,0,0,0,6.93,4l86.64,0a4,4,0,0,0,3.46-6l-43.3-75A8,8,0,0,0,676.13,390.46Z" transform="translate(-471.8 -196.56)"/><path fill="#00C9AB" d="M833.56,281.31l-86.37,0a8,8,0,0,1-6.93-4l-43.15-74.73a4,4,0,0,1,3.47-6h72.5a32,32,0,0,1,27.72,16L837,275.31A4,4,0,0,1,833.56,281.31Zm8.13,10.61h-102a8,8,0,0,1-6.93-4L682.3,200.56a8,8,0,0,0-6.93-4H593.58a32,32,0,0,0-27.71,16l-36.39,63a4,4,0,0,0,3.47,6h93.23a8,8,0,0,1,6.93,4L684.17,374a8,8,0,0,0,6.93,4H793.24a8,8,0,0,1,6.93,4l46.61,80.73a4,4,0,0,0,6.93,0l36.38-63a32,32,0,0,0,0-32l-41.47-71.83A8,8,0,0,0,841.69,291.92Z" transform="translate(-471.8 -196.56)"/></svg>